<?xml version="1.0" standalone="no"?>
<!DOCTYPE svg PUBLIC "-//W3C//DTD SVG 20010904//EN"
 "http://www.w3.org/TR/2001/REC-SVG-20010904/DTD/svg10.dtd">
<svg version="1.0" xmlns="http://www.w3.org/2000/svg"
 width="300.000000pt" height="300.000000pt" viewBox="0 0 300.000000 300.000000"
 preserveAspectRatio="xMidYMid meet">
<metadata>
Created by potrace 1.10, written by Peter Selinger 2001-2011
</metadata>
<g transform="translate(0.000000,300.000000) scale(0.100000,-0.100000)"
fill="#000000" stroke="none">
<path d="M1567 2453 c-12 -19 -19 -143 -9 -143 16 0 20 10 26 77 5 55 -4 88
-17 66z"/>
<path d="M1401 2433 c2 -44 25 -117 38 -121 13 -4 13 6 -4 88 -2 8 -4 23 -4
33 -1 9 -8 17 -16 17 -8 0 -15 -8 -14 -17z"/>
<path d="M1725 2398 c-10 -26 -35 -113 -35 -120 0 -5 4 -8 10 -8 11 0 29 30
33 57 2 10 9 28 15 41 13 23 9 42 -9 42 -5 0 -12 -6 -14 -12z"/>
<path d="M1240 2392 c0 -4 5 -13 11 -19 6 -6 12 -17 13 -24 2 -8 6 -23 10 -34
5 -11 10 -26 12 -33 4 -12 25 -13 26 -2 0 3 -8 31 -18 63 -13 42 -22 57 -36
57 -10 0 -18 -4 -18 -8z"/>
<path d="M1125 2320 c-10 -15 76 -123 88 -111 6 6 -7 30 -33 65 -46 61 -46 61
-55 46z"/>
<path d="M1826 2280 c-37 -51 -45 -75 -24 -68 15 5 76 89 77 106 2 25 -18 11
-53 -38z"/>
<path d="M1381 2241 c-12 -12 -27 -21 -35 -21 -20 0 -66 -39 -66 -56 0 -8 -10
-14 -26 -14 -31 0 -84 -50 -84 -79 0 -11 -11 -31 -25 -45 -18 -18 -25 -36 -25
-64 0 -21 -7 -47 -15 -58 -22 -29 -19 -87 7 -120 14 -17 21 -38 20 -55 -3 -27
29 -69 53 -69 6 0 16 -13 22 -30 6 -17 23 -34 37 -40 14 -5 26 -14 26 -20 0
-6 11 -16 25 -22 17 -8 24 -17 20 -28 -3 -9 4 -29 15 -43 15 -18 19 -34 14
-52 -4 -15 -1 -32 6 -41 10 -11 10 -18 2 -26 -14 -14 -16 -54 -3 -62 5 -4 4
-19 -2 -36 -14 -38 -1 -64 36 -68 14 -2 29 -11 32 -21 8 -25 48 -41 101 -41
38 0 51 5 72 28 15 16 39 32 53 35 30 8 47 50 29 72 -7 9 -7 21 0 39 7 18 7
33 0 46 -7 12 -7 27 0 45 6 15 8 30 5 35 -12 19 45 118 100 175 87 91 103 122
130 247 7 35 -21 160 -47 212 -31 60 -101 129 -165 162 -57 28 -80 31 -198 25
-11 -1 -36 1 -57 5 -29 5 -40 2 -57 -15z m78 -12 l31 -11 0 -115 c0 -87 -3
-114 -12 -111 -7 3 -14 18 -16 34 -5 41 -20 52 -27 21 -4 -14 -1 -35 7 -49 7
-12 13 -36 13 -52 0 -16 6 -31 14 -34 9 -3 11 1 7 14 -3 11 -1 26 4 34 7 11
10 0 10 -36 l0 -52 -36 0 c-28 0 -44 -8 -73 -36 -36 -36 -54 -42 -85 -30 -18
7 -22 59 -6 69 12 8 13 45 1 45 -5 0 -11 -9 -14 -21 -5 -20 -6 -20 -32 -3 -35
23 -47 7 -12 -18 34 -25 34 -44 0 -80 -29 -30 -25 -52 5 -25 14 13 30 15 70
10 50 -6 52 -4 83 31 25 28 40 36 66 36 30 0 33 -3 33 -28 0 -26 -3 -28 -28
-24 -18 2 -33 -2 -41 -12 -17 -21 -7 -33 14 -16 8 7 22 10 30 6 22 -8 18 -37
-5 -43 -29 -8 -25 -26 5 -21 23 5 25 2 25 -28 0 -19 -3 -34 -6 -34 -14 0 -95
54 -103 68 -11 20 -26 10 -18 -11 7 -18 93 -77 113 -77 10 0 14 -12 14 -40 0
-34 -3 -40 -21 -40 -35 0 -58 -19 -65 -55 -3 -20 -12 -35 -20 -35 -22 0 -47
47 -40 74 5 20 1 26 -24 35 -32 11 -37 20 -18 39 15 15 -5 62 -27 62 -19 0
-19 -14 0 -30 16 -14 11 -30 -10 -30 -18 0 -45 28 -45 46 0 8 9 23 21 35 17
17 28 20 56 14 27 -5 34 -3 31 7 -3 7 -21 14 -41 16 -29 3 -42 -3 -62 -22 -32
-32 -40 -32 -59 -4 -22 30 -20 48 4 48 21 0 28 16 9 22 -9 3 -8 10 1 25 15 24
7 53 -14 53 -12 0 -14 -7 -10 -29 8 -40 -12 -48 -31 -11 -13 26 -14 38 -5 66
10 29 14 32 30 24 10 -6 26 -10 35 -10 13 0 9 8 -14 29 -34 32 -38 48 -17 76
14 19 15 19 43 -9 26 -26 32 -28 85 -23 66 6 78 -2 78 -55 0 -21 5 -38 10 -38
6 0 10 9 10 20 0 11 9 25 20 32 25 16 26 28 2 28 -28 0 -44 34 -27 56 19 25
19 34 0 34 -9 0 -20 -11 -25 -24 -7 -19 -19 -26 -55 -31 -79 -12 -124 39 -91
103 19 36 45 46 94 37 l37 -7 -20 22 c-20 22 -20 22 4 41 l24 20 15 -31 c8
-16 18 -30 22 -30 17 0 19 15 3 33 -17 18 -17 20 10 43 33 28 26 27 66 13z
m184 -9 c86 -27 155 -88 199 -178 29 -59 33 -76 33 -152 0 -117 -20 -164 -110
-261 -40 -42 -80 -97 -91 -121 -16 -41 -21 -45 -54 -46 l-36 -2 4 93 c4 106
24 196 53 244 l21 33 25 -20 c29 -23 63 -26 81 -8 38 38 -15 101 -69 81 -21
-8 -31 -8 -36 0 -3 6 -1 13 5 15 53 17 77 73 41 95 -24 15 -69 -16 -69 -48 0
-17 -4 -23 -14 -19 -10 4 -13 15 -9 37 6 41 -28 78 -55 61 -23 -15 -27 -67 -8
-87 15 -14 13 -18 -14 -37 l-30 -21 0 165 c0 90 3 171 6 180 8 22 48 20 127
-4z m-46 -240 c4 -21 -13 -44 -26 -36 -6 4 -11 18 -11 32 0 19 5 25 17 22 10
-2 19 -10 20 -18z m113 -19 c0 -6 -10 -17 -22 -26 -24 -16 -35 -7 -24 20 6 16
46 21 46 6z m-76 -67 c22 -21 20 -37 -9 -80 -36 -52 -45 -93 -55 -233 -5 -68
-12 -126 -15 -130 -4 -3 -5 83 -3 192 2 161 1 197 -10 195 -11 -2 -13 -42 -12
-195 0 -128 -3 -193 -10 -193 -6 0 -10 70 -10 204 0 191 1 205 19 211 10 3 26
14 36 25 22 24 48 26 69 4z m107 -34 c10 -6 19 -17 19 -26 0 -23 -28 -28 -57
-9 -25 17 -26 18 -8 31 23 17 21 17 46 4z m-251 -370 c0 -33 -3 -40 -19 -40
-29 0 -51 11 -51 24 0 22 31 56 51 56 16 0 19 -7 19 -40z m160 -70 c0 -34 -26
-42 -139 -42 -96 0 -112 3 -131 20 -12 11 -20 24 -17 29 3 4 69 8 146 9 127 1
141 -1 141 -16z m-159 -74 c13 1 53 3 89 5 59 4 65 2 68 -17 4 -31 -36 -44
-141 -44 -87 0 -105 4 -146 36 -2 2 1 10 7 17 9 10 24 12 56 7 24 -3 54 -6 67
-4z m157 -99 c-7 -44 -172 -63 -245 -30 -49 22 -46 20 -40 35 3 10 40 13 146
13 132 0 142 -1 139 -18z"/>
<path d="M1435 2160 c-4 -6 -4 -14 -1 -17 3 -3 1 -14 -5 -25 -8 -14 -19 -18
-41 -16 -39 4 -48 -17 -12 -26 34 -9 77 20 82 54 4 26 -12 48 -23 30z"/>
<path d="M1302 2085 c-13 -29 -24 -31 -42 -10 -16 19 -30 19 -30 0 0 -39 83
-43 95 -4 10 32 -9 44 -23 14z"/>
<path d="M1340 1636 c0 -23 51 -57 79 -54 40 5 38 28 -3 28 -25 0 -40 6 -48
20 -15 23 -28 26 -28 6z"/>
<path d="M1560 2181 c8 -6 22 -11 31 -11 28 0 112 -41 154 -74 56 -45 74 -54
50 -26 -35 43 -59 61 -110 85 -52 25 -153 46 -125 26z"/>
<path d="M1020 2211 c0 -13 92 -91 107 -91 22 0 14 14 -25 44 -20 17 -41 36
-45 43 -9 15 -37 18 -37 4z"/>
<path d="M1937 2200 c-7 -9 -27 -27 -44 -40 -18 -13 -33 -27 -33 -32 0 -18 28
-6 66 27 21 19 42 35 47 35 4 0 7 6 7 13 0 19 -29 17 -43 -3z"/>
<path d="M955 2081 c-6 -10 13 -23 77 -53 24 -11 40 -13 44 -7 8 13 9 11 -53
43 -59 29 -60 30 -68 17z"/>
<path d="M1973 2062 c-29 -14 -53 -32 -53 -39 0 -18 6 -16 69 15 49 25 66 43
44 49 -4 1 -32 -10 -60 -25z"/>
<path d="M925 1939 c-9 -14 -1 -21 27 -25 20 -3 39 -6 91 -17 5 -1 11 3 14 10
5 13 -12 19 -72 29 -22 3 -43 8 -47 10 -4 2 -10 -1 -13 -7z"/>
<path d="M2040 1943 c-14 -2 -32 -7 -40 -10 -8 -3 -19 -5 -24 -4 -13 3 -36
-20 -31 -30 3 -4 16 -4 29 1 13 5 26 6 29 3 3 -3 12 -1 19 3 7 4 21 9 30 9 10
1 21 5 25 8 11 12 -11 23 -37 20z"/>
<path d="M1039 1805 c-3 -2 -29 -5 -57 -6 -33 -1 -51 -6 -49 -13 3 -10 37 -12
113 -8 15 1 24 7 22 14 -5 13 -22 21 -29 13z"/>
<path d="M1935 1800 c-11 -17 -4 -20 68 -25 55 -4 67 -3 67 10 0 11 -12 15
-49 15 -27 0 -56 3 -64 6 -8 3 -18 0 -22 -6z"/>
<path d="M1064 1687 c-10 -6 -23 -12 -29 -13 -46 -9 -89 -45 -52 -44 25 1 121
37 124 47 6 16 -21 22 -43 10z"/>
<path d="M1896 1693 c-11 -11 -6 -21 12 -26 9 -4 35 -13 57 -21 47 -18 65 -20
65 -6 0 11 -30 29 -57 33 -10 1 -22 5 -28 8 -21 12 -43 17 -49 12z"/>
<path d="M1125 1577 c-17 -12 -42 -30 -55 -39 -16 -12 -21 -21 -14 -28 11 -11
114 57 114 77 0 18 -10 16 -45 -10z"/>
<path d="M1830 1585 c0 -9 8 -19 18 -22 9 -4 19 -9 22 -13 14 -17 68 -49 74
-43 12 12 6 23 -26 39 -17 9 -40 25 -51 35 -25 23 -37 24 -37 4z"/>
<path d="M1010 860 l0 -120 55 0 c48 0 55 2 55 20 0 16 -7 20 -35 20 -32 0
-35 2 -35 30 0 27 3 30 30 30 23 0 30 4 30 20 0 16 -7 20 -30 20 -27 0 -30 3
-30 30 0 28 3 30 35 30 28 0 35 4 35 20 0 18 -7 20 -55 20 l-55 0 0 -120z"/>
<path d="M1150 960 c0 -11 7 -20 15 -20 12 0 15 -18 15 -100 0 -100 0 -100 25
-100 25 0 25 0 25 100 0 79 3 100 14 100 12 0 26 20 26 36 0 2 -27 4 -60 4
-53 0 -60 -2 -60 -20z"/>
<path d="M1300 860 c0 -113 1 -120 20 -120 17 0 20 7 20 50 0 45 2 50 23 50
20 0 22 -4 19 -50 -4 -48 -3 -50 22 -50 l26 0 0 120 0 120 -26 0 c-24 0 -25
-2 -23 -47 3 -43 1 -48 -19 -51 -20 -3 -22 1 -22 47 0 44 -3 51 -20 51 -19 0
-20 -7 -20 -120z"/>
<path d="M1470 860 l0 -120 25 0 25 0 0 120 0 120 -25 0 -25 0 0 -120z"/>
<path d="M1577 962 c-13 -14 -17 -39 -17 -104 0 -96 13 -118 68 -118 47 0 62
29 62 120 0 92 -15 120 -64 120 -19 0 -40 -8 -49 -18z m71 -96 c3 -74 -10
-105 -34 -85 -9 8 -14 34 -14 79 0 71 5 82 30 78 11 -3 16 -19 18 -72z"/>
<path d="M1730 860 c0 -119 0 -120 24 -120 22 0 23 3 18 50 l-5 50 32 0 c25 0
31 4 31 21 0 16 -5 20 -27 17 -25 -3 -28 1 -31 30 -3 31 -2 32 32 32 29 0 36
4 36 20 0 18 -7 20 -55 20 l-55 0 0 -120z"/>
<path d="M1870 927 c0 -41 5 -58 20 -72 15 -13 20 -31 20 -67 0 -45 2 -48 26
-48 26 0 27 1 20 46 -5 41 -3 48 19 66 21 16 25 28 25 74 0 51 -1 54 -25 54
-22 0 -24 -3 -19 -30 8 -38 -3 -80 -20 -80 -18 0 -26 22 -26 71 0 32 -3 39
-20 39 -18 0 -20 -7 -20 -53z"/>
<path d="M635 634 c9 -61 28 -73 40 -26 l7 27 10 -27 c11 -32 24 -36 31 -10
15 52 16 72 7 72 -5 0 -11 -7 -11 -15 -1 -15 -4 -28 -9 -42 -1 -5 -5 5 -9 21
-8 38 -31 47 -31 12 0 -13 -4 -28 -10 -31 -6 -4 -10 7 -10 24 0 17 -5 31 -11
31 -6 0 -8 -14 -4 -36z"/>
<path d="M772 625 c-1 -25 2 -45 8 -45 5 0 10 9 10 20 0 13 7 20 19 20 14 0
18 -5 14 -20 -3 -11 0 -20 6 -20 6 0 11 19 11 45 0 25 -4 45 -10 45 -5 0 -10
-9 -10 -20 0 -11 -7 -20 -15 -20 -8 0 -15 9 -15 20 0 41 -17 18 -18 -25z"/>
<path d="M890 625 c0 -41 2 -45 25 -45 14 0 25 5 25 11 0 6 -7 9 -15 6 -21 -9
-28 10 -8 22 17 10 17 10 1 11 -10 0 -18 5 -18 10 0 6 9 10 20 10 11 0 20 5
20 10 0 6 -11 10 -25 10 -23 0 -25 -4 -25 -45z"/>
<path d="M973 625 c0 -25 4 -45 9 -45 4 0 8 7 8 15 0 8 4 15 9 15 5 0 11 -7
15 -15 3 -8 11 -15 17 -15 8 0 8 4 -1 15 -6 8 -9 23 -5 36 8 23 -7 39 -36 39
-12 0 -16 -11 -16 -45z"/>
<path d="M1074 625 c0 -43 2 -45 29 -45 16 0 26 4 22 10 -3 6 -13 10 -21 10
-20 0 -18 18 4 23 16 4 16 5 0 6 -25 1 -22 21 3 21 11 0 17 5 14 10 -3 6 -16
10 -28 10 -20 0 -23 -5 -23 -45z"/>
<path d="M1220 650 c-16 -29 -4 -57 32 -75 38 -19 44 -19 29 -1 -8 10 -9 16
-1 21 14 8 13 48 -2 63 -18 18 -46 14 -58 -8z m50 -23 c0 -29 -7 -37 -26 -30
-14 5 -19 35 -7 46 14 15 33 6 33 -16z"/>
<path d="M1330 636 c0 -39 20 -60 50 -51 16 5 20 15 20 46 0 50 -18 51 -22 2
-2 -21 -7 -38 -13 -38 -5 0 -11 17 -13 38 -4 46 -22 49 -22 3z"/>
<path d="M1449 625 c-14 -37 -14 -45 -3 -45 8 0 14 5 14 10 0 14 28 12 33 -2
2 -7 7 -10 11 -7 10 9 -17 89 -29 89 -6 0 -17 -20 -26 -45z"/>
<path d="M1550 625 c0 -41 2 -45 25 -45 14 0 25 5 25 10 0 6 -7 10 -15 10 -10
0 -15 11 -15 35 0 19 -4 35 -10 35 -5 0 -10 -20 -10 -45z"/>
<path d="M1640 625 c0 -25 5 -45 10 -45 6 0 10 20 10 45 0 25 -4 45 -10 45 -5
0 -10 -20 -10 -45z"/>
<path d="M1690 660 c0 -5 5 -10 10 -10 6 0 10 -16 10 -35 0 -19 5 -35 10 -35
6 0 10 16 10 35 0 19 5 35 10 35 6 0 10 5 10 10 0 6 -13 10 -30 10 -16 0 -30
-4 -30 -10z"/>
<path d="M1780 662 c0 -5 6 -17 14 -27 7 -10 11 -27 8 -37 -2 -10 1 -18 7 -18
6 0 11 8 11 18 0 9 7 26 15 36 17 23 19 36 6 36 -5 0 -13 -10 -17 -22 l-7 -23
-10 23 c-10 21 -27 30 -27 14z"/>
<path d="M1940 625 c0 -25 5 -45 10 -45 6 0 10 6 10 13 0 7 9 18 20 25 17 10
18 16 10 32 -6 11 -20 20 -30 20 -17 0 -20 -7 -20 -45z"/>
<path d="M2035 625 c0 -45 15 -66 16 -22 l0 22 16 -22 c19 -28 38 -31 23 -4
-5 11 -7 27 -4 36 7 18 -10 35 -36 35 -11 0 -15 -12 -15 -45z"/>
<path d="M2135 625 c0 -30 4 -45 13 -45 9 0 12 13 10 42 -4 57 -23 59 -23 3z"/>
<path d="M2201 623 c2 -45 2 -46 8 -13 l6 35 14 -32 c20 -49 41 -43 41 12 0
26 -5 45 -11 45 -7 0 -8 -11 -4 -30 4 -17 2 -30 -3 -30 -5 0 -15 14 -22 30
-18 44 -30 37 -29 -17z"/>
<path d="M2300 660 c0 -5 7 -10 15 -10 10 0 15 -11 15 -35 0 -19 5 -35 11 -35
8 0 10 12 6 35 -4 26 -2 35 9 35 8 0 14 5 14 10 0 6 -16 10 -35 10 -19 0 -35
-4 -35 -10z"/>
<path d="M2403 654 c-4 -11 2 -23 16 -33 23 -17 19 -34 -5 -24 -8 3 -14 0 -14
-6 0 -16 35 -14 50 3 9 12 7 17 -9 28 -27 16 -27 28 0 28 11 0 17 5 14 10 -10
16 -45 12 -52 -6z"/>
<path d="M870 465 c0 -25 5 -45 10 -45 6 0 10 7 10 15 0 8 7 15 15 15 8 0 15
5 15 10 0 6 -7 10 -15 10 -8 0 -15 5 -15 10 0 6 7 10 15 10 8 0 15 5 15 10 0
6 -11 10 -25 10 -23 0 -25 -4 -25 -45z"/>
<path d="M960 465 c0 -25 5 -45 10 -45 6 0 10 20 10 45 0 25 -4 45 -10 45 -5
0 -10 -20 -10 -45z"/>
<path d="M1020 465 c0 -25 5 -45 10 -45 6 0 10 12 10 28 l1 27 15 -27 c22 -41
42 -36 42 10 0 51 -12 65 -18 22 l-6 -35 -17 33 c-24 44 -37 40 -37 -13z"/>
<path d="M1140 465 c0 -48 11 -56 51 -35 24 13 25 42 1 63 -35 31 -52 22 -52
-28z m48 -2 c2 -11 -4 -23 -12 -26 -12 -5 -16 1 -16 24 0 35 23 36 28 2z"/>
<path d="M1290 501 c0 -5 6 -11 13 -14 9 -3 12 -16 9 -36 -3 -22 0 -31 10 -31
10 0 13 10 10 35 -3 27 -1 35 12 35 9 0 16 5 16 10 0 6 -16 10 -35 10 -19 0
-35 -4 -35 -9z"/>
<path d="M1390 465 c0 -25 5 -45 10 -45 6 0 10 9 10 20 0 11 7 20 15 20 8 0
15 -9 15 -20 0 -11 5 -20 10 -20 6 0 10 20 10 45 0 25 -4 45 -10 45 -5 0 -10
-9 -10 -20 0 -11 -7 -20 -15 -20 -8 0 -15 9 -15 20 0 11 -4 20 -10 20 -5 0
-10 -20 -10 -45z"/>
<path d="M1508 465 c-3 -44 -3 -45 27 -44 l30 0 -25 11 c-21 9 -22 12 -7 15
21 5 23 23 2 23 -8 0 -15 5 -15 10 0 6 9 10 21 10 11 0 17 5 14 10 -3 6 -14
10 -25 10 -14 0 -19 -9 -22 -45z"/>
<path d="M1590 465 c0 -25 5 -45 10 -45 6 0 10 20 10 45 0 25 -4 45 -10 45 -5
0 -10 -20 -10 -45z"/>
<path d="M1658 465 c-2 -31 1 -45 9 -45 7 0 10 7 7 15 -4 8 -2 15 4 15 5 0 12
-7 16 -15 3 -8 11 -15 17 -15 8 0 8 4 1 13 -6 7 -8 23 -5 36 4 14 1 26 -8 32
-27 17 -37 9 -41 -36z"/>
<path d="M1809 508 c0 -2 -1 -22 -2 -46 -1 -28 2 -42 11 -42 6 0 12 9 12 20 0
11 7 20 15 20 8 0 15 -9 15 -20 0 -11 5 -20 10 -20 6 0 10 20 10 45 0 25 -4
45 -10 45 -5 0 -10 -9 -10 -20 0 -11 -7 -20 -15 -20 -8 0 -15 9 -15 20 0 11
-4 20 -10 20 -5 0 -10 -1 -11 -2z"/>
<path d="M1929 494 c-6 -7 -9 -25 -7 -41 2 -22 9 -29 30 -31 22 -3 30 2 40 22
9 21 8 29 -5 44 -20 22 -43 24 -58 6z m46 -34 c0 -36 -29 -33 -33 3 -3 23 0
28 15 25 12 -2 18 -12 18 -28z"/>
<path d="M2038 465 c-2 -25 0 -45 4 -45 5 0 8 15 9 33 l1 32 10 -32 c13 -40
21 -41 35 -5 l11 27 1 -27 c1 -16 6 -28 12 -28 6 0 8 7 5 16 -3 9 -6 29 -6 45
0 38 -19 37 -26 -1 -4 -16 -10 -30 -14 -30 -5 0 -11 14 -15 30 -10 44 -22 37
-27 -15z"/>
<path d="M2170 465 c0 -43 1 -45 28 -44 16 1 20 3 10 6 -22 5 -24 23 -3 23 8
0 15 5 15 10 0 6 -7 10 -15 10 -8 0 -15 5 -15 10 0 6 7 10 15 10 8 0 15 5 15
10 0 6 -11 10 -25 10 -23 0 -25 -4 -25 -45z"/>
</g>
</svg>
