<svg xmlns="http://www.w3.org/2000/svg" xmlns:xlink="http://www.w3.org/1999/xlink" width="300" zoomAndPan="magnify" viewBox="0 0 224.87999 225" height="300" preserveAspectRatio="xMidYMid meet" version="1.0"><path fill="#ffffff" d="M 117.460938 41.0625 C 116.5625 42.488281 116.039062 51.78125 116.789062 51.78125 C 117.988281 51.78125 118.285156 51.03125 118.738281 46.011719 C 119.113281 41.886719 118.4375 39.414062 117.460938 41.0625 Z M 117.460938 41.0625 " fill-opacity="1" fill-rule="nonzero"/><path fill="#ffffff" d="M 105.019531 42.5625 C 105.167969 45.859375 106.894531 51.332031 107.867188 51.632812 C 108.84375 51.933594 108.84375 51.183594 107.566406 45.035156 C 107.417969 44.4375 107.269531 43.3125 107.269531 42.5625 C 107.191406 41.886719 106.667969 41.289062 106.070312 41.289062 C 105.46875 41.289062 104.945312 41.886719 105.019531 42.5625 Z M 105.019531 42.5625 " fill-opacity="1" fill-rule="nonzero"/><path fill="#ffffff" d="M 129.304688 45.1875 C 128.554688 47.136719 126.683594 53.65625 126.683594 54.179688 C 126.683594 54.554688 126.980469 54.78125 127.433594 54.78125 C 128.257812 54.78125 129.605469 52.53125 129.90625 50.507812 C 130.054688 49.757812 130.582031 48.410156 131.03125 47.433594 C 132.003906 45.710938 131.703125 44.285156 130.355469 44.285156 C 129.980469 44.285156 129.457031 44.734375 129.304688 45.1875 Z M 129.304688 45.1875 " fill-opacity="1" fill-rule="nonzero"/><path fill="#ffffff" d="M 92.949219 45.636719 C 92.949219 45.933594 93.324219 46.609375 93.773438 47.058594 C 94.226562 47.507812 94.675781 48.335938 94.75 48.859375 C 94.898438 49.457031 95.199219 50.582031 95.5 51.40625 C 95.875 52.230469 96.25 53.355469 96.398438 53.882812 C 96.699219 54.78125 98.273438 54.855469 98.347656 54.03125 C 98.347656 53.804688 97.746094 51.707031 97 49.308594 C 96.023438 46.160156 95.347656 45.035156 94.300781 45.035156 C 93.550781 45.035156 92.949219 45.335938 92.949219 45.636719 Z M 92.949219 45.636719 " fill-opacity="1" fill-rule="nonzero"/><path fill="#ffffff" d="M 84.328125 51.03125 C 83.582031 52.15625 90.027344 60.253906 90.925781 59.351562 C 91.375 58.902344 90.402344 57.105469 88.453125 54.480469 C 85.003906 49.910156 85.003906 49.910156 84.328125 51.03125 Z M 84.328125 51.03125 " fill-opacity="1" fill-rule="nonzero"/><path fill="#ffffff" d="M 136.875 54.03125 C 134.101562 57.855469 133.503906 59.652344 135.078125 59.128906 C 136.203125 58.753906 140.773438 52.457031 140.851562 51.183594 C 141 49.308594 139.5 50.359375 136.875 54.03125 Z M 136.875 54.03125 " fill-opacity="1" fill-rule="nonzero"/><path fill="#ffffff" d="M 103.519531 56.953125 C 102.621094 57.855469 101.496094 58.527344 100.894531 58.527344 C 99.398438 58.527344 95.949219 61.453125 95.949219 62.726562 C 95.949219 63.328125 95.199219 63.777344 94 63.777344 C 91.675781 63.777344 87.703125 67.523438 87.703125 69.699219 C 87.703125 70.523438 86.878906 72.023438 85.828125 73.070312 C 84.480469 74.421875 83.957031 75.769531 83.957031 77.867188 C 83.957031 79.441406 83.429688 81.390625 82.832031 82.214844 C 81.183594 84.390625 81.40625 88.738281 83.355469 91.210938 C 84.40625 92.484375 84.929688 94.058594 84.855469 95.335938 C 84.628906 97.359375 87.027344 100.507812 88.828125 100.507812 C 89.277344 100.507812 90.027344 101.480469 90.476562 102.753906 C 90.925781 104.03125 92.199219 105.304688 93.25 105.753906 C 94.300781 106.128906 95.199219 106.804688 95.199219 107.253906 C 95.199219 107.703125 96.023438 108.453125 97.074219 108.902344 C 98.347656 109.5 98.871094 110.175781 98.574219 111 C 98.347656 111.675781 98.871094 113.175781 99.695312 114.222656 C 100.820312 115.574219 101.121094 116.773438 100.746094 118.121094 C 100.445312 119.246094 100.671875 120.519531 101.195312 121.195312 C 101.945312 122.019531 101.945312 122.542969 101.347656 123.144531 C 100.296875 124.195312 100.148438 127.191406 101.121094 127.792969 C 101.496094 128.089844 101.421875 129.214844 100.972656 130.492188 C 99.921875 133.339844 100.894531 135.289062 103.667969 135.585938 C 104.71875 135.738281 105.84375 136.414062 106.070312 137.160156 C 106.667969 139.035156 109.667969 140.234375 113.640625 140.234375 C 116.488281 140.234375 117.460938 139.859375 119.035156 138.136719 C 120.160156 136.9375 121.960938 135.738281 123.007812 135.511719 C 125.257812 134.914062 126.53125 131.765625 125.183594 130.117188 C 124.660156 129.441406 124.660156 128.542969 125.183594 127.191406 C 125.707031 125.84375 125.707031 124.71875 125.183594 123.742188 C 124.660156 122.84375 124.660156 121.71875 125.183594 120.371094 C 125.632812 119.246094 125.78125 118.121094 125.558594 117.746094 C 124.660156 116.324219 128.929688 108.902344 133.054688 104.628906 C 139.574219 97.808594 140.773438 95.484375 142.796875 86.113281 C 143.324219 83.492188 141.226562 74.121094 139.277344 70.222656 C 136.953125 65.726562 131.703125 60.550781 126.90625 58.078125 C 122.632812 55.980469 120.910156 55.753906 112.066406 56.203125 C 111.242188 56.28125 109.367188 56.128906 107.792969 55.832031 C 105.617188 55.457031 104.792969 55.679688 103.519531 56.953125 Z M 109.367188 57.855469 L 111.691406 58.679688 L 111.691406 67.300781 C 111.691406 73.820312 111.464844 75.84375 110.789062 75.621094 C 110.265625 75.394531 109.742188 74.269531 109.589844 73.070312 C 109.214844 69.996094 108.09375 69.171875 107.566406 71.496094 C 107.269531 72.546875 107.492188 74.121094 108.09375 75.171875 C 108.617188 76.070312 109.066406 77.867188 109.066406 79.066406 C 109.066406 80.265625 109.515625 81.390625 110.117188 81.617188 C 110.789062 81.839844 110.941406 81.542969 110.640625 80.566406 C 110.417969 79.742188 110.566406 78.617188 110.941406 78.019531 C 111.464844 77.195312 111.691406 78.019531 111.691406 80.71875 L 111.691406 84.613281 L 108.992188 84.613281 C 106.894531 84.613281 105.695312 85.214844 103.519531 87.3125 C 100.820312 90.011719 99.472656 90.460938 97.148438 89.5625 C 95.800781 89.039062 95.5 85.140625 96.699219 84.390625 C 97.597656 83.789062 97.671875 81.015625 96.773438 81.015625 C 96.398438 81.015625 95.949219 81.691406 95.722656 82.589844 C 95.347656 84.089844 95.273438 84.089844 93.324219 82.816406 C 90.703125 81.089844 89.800781 82.292969 92.425781 84.164062 C 94.972656 86.039062 94.972656 87.464844 92.425781 90.160156 C 90.25 92.410156 90.550781 94.058594 92.800781 92.035156 C 93.851562 91.0625 95.050781 90.910156 98.046875 91.285156 C 101.796875 91.734375 101.945312 91.585938 104.269531 88.960938 C 106.144531 86.863281 107.269531 86.265625 109.214844 86.265625 C 111.464844 86.265625 111.691406 86.488281 111.691406 88.363281 C 111.691406 90.3125 111.464844 90.460938 109.589844 90.160156 C 108.242188 90.011719 107.117188 90.3125 106.519531 91.0625 C 105.242188 92.636719 105.992188 93.535156 107.566406 92.261719 C 108.167969 91.734375 109.214844 91.511719 109.816406 91.8125 C 111.464844 92.410156 111.164062 94.585938 109.441406 95.035156 C 107.269531 95.632812 107.566406 96.984375 109.816406 96.609375 C 111.539062 96.234375 111.691406 96.457031 111.691406 98.707031 C 111.691406 100.132812 111.464844 101.257812 111.242188 101.257812 C 110.191406 101.257812 104.121094 97.207031 103.519531 96.160156 C 102.695312 94.660156 101.570312 95.410156 102.171875 96.984375 C 102.695312 98.332031 109.140625 102.753906 110.640625 102.753906 C 111.390625 102.753906 111.691406 103.65625 111.691406 105.753906 C 111.691406 108.300781 111.464844 108.753906 110.117188 108.753906 C 107.492188 108.753906 105.769531 110.175781 105.242188 112.875 C 105.019531 114.375 104.34375 115.5 103.746094 115.5 C 102.09375 115.5 100.222656 111.976562 100.746094 109.953125 C 101.121094 108.453125 100.820312 108.003906 98.945312 107.328125 C 96.546875 106.503906 96.171875 105.828125 97.597656 104.40625 C 98.722656 103.28125 97.222656 99.757812 95.574219 99.757812 C 94.148438 99.757812 94.148438 100.804688 95.574219 102.003906 C 96.773438 103.054688 96.398438 104.253906 94.824219 104.253906 C 93.476562 104.253906 91.453125 102.15625 91.453125 100.804688 C 91.453125 100.207031 92.125 99.082031 93.023438 98.183594 C 94.300781 96.910156 95.125 96.683594 97.222656 97.132812 C 99.246094 97.507812 99.773438 97.359375 99.546875 96.609375 C 99.320312 96.082031 97.972656 95.558594 96.472656 95.410156 C 94.300781 95.183594 93.324219 95.632812 91.824219 97.058594 C 89.425781 99.457031 88.828125 99.457031 87.402344 97.359375 C 85.753906 95.109375 85.902344 93.761719 87.703125 93.761719 C 89.277344 93.761719 89.800781 92.5625 88.378906 92.109375 C 87.703125 91.886719 87.777344 91.359375 88.453125 90.238281 C 89.578125 88.4375 88.976562 86.265625 87.402344 86.265625 C 86.503906 86.265625 86.355469 86.789062 86.652344 88.4375 C 87.253906 91.4375 85.753906 92.035156 84.328125 89.261719 C 83.355469 87.3125 83.28125 86.414062 83.957031 84.316406 C 84.703125 82.140625 85.003906 81.917969 86.203125 82.515625 C 86.953125 82.964844 88.152344 83.265625 88.828125 83.265625 C 89.800781 83.265625 89.503906 82.664062 87.777344 81.089844 C 85.230469 78.691406 84.929688 77.492188 86.503906 75.394531 C 87.554688 73.96875 87.628906 73.96875 89.726562 76.070312 C 91.675781 78.019531 92.125 78.167969 96.097656 77.792969 C 101.046875 77.34375 101.945312 77.945312 101.945312 81.917969 C 101.945312 83.492188 102.320312 84.765625 102.695312 84.765625 C 103.144531 84.765625 103.445312 84.089844 103.445312 83.265625 C 103.445312 82.441406 104.121094 81.390625 104.945312 80.867188 C 106.816406 79.667969 106.894531 78.769531 105.09375 78.769531 C 102.996094 78.769531 101.796875 76.21875 103.070312 74.570312 C 104.496094 72.695312 104.496094 72.023438 103.070312 72.023438 C 102.394531 72.023438 101.570312 72.847656 101.195312 73.820312 C 100.671875 75.246094 99.773438 75.769531 97.074219 76.144531 C 91.152344 77.042969 87.777344 73.222656 90.25 68.421875 C 91.675781 65.726562 93.625 64.976562 97.296875 65.648438 L 100.070312 66.175781 L 98.574219 64.527344 C 97.074219 62.875 97.074219 62.875 98.871094 61.453125 L 100.671875 59.953125 L 101.796875 62.277344 C 102.394531 63.476562 103.144531 64.527344 103.445312 64.527344 C 104.71875 64.527344 104.867188 63.402344 103.667969 62.050781 C 102.394531 60.703125 102.394531 60.550781 104.417969 58.828125 C 106.894531 56.730469 106.367188 56.804688 109.367188 57.855469 Z M 123.160156 58.527344 C 129.605469 60.550781 134.777344 65.125 138.078125 71.871094 C 140.25 76.292969 140.550781 77.570312 140.550781 83.265625 C 140.550781 92.035156 139.050781 95.558594 132.304688 102.832031 C 129.304688 105.976562 126.308594 110.101562 125.484375 111.898438 C 124.285156 114.972656 123.910156 115.273438 121.433594 115.347656 L 118.738281 115.5 L 119.035156 108.527344 C 119.335938 100.582031 120.835938 93.835938 123.007812 90.238281 L 124.582031 87.761719 L 126.457031 89.261719 C 128.632812 90.988281 131.179688 91.210938 132.527344 89.863281 C 135.378906 87.011719 131.40625 82.292969 127.355469 83.789062 C 125.78125 84.390625 125.035156 84.390625 124.660156 83.789062 C 124.433594 83.339844 124.582031 82.816406 125.035156 82.664062 C 129.007812 81.390625 130.804688 77.195312 128.105469 75.542969 C 126.308594 74.421875 122.933594 76.742188 122.933594 79.144531 C 122.933594 80.417969 122.632812 80.867188 121.886719 80.566406 C 121.136719 80.265625 120.910156 79.441406 121.210938 77.792969 C 121.660156 74.71875 119.113281 71.945312 117.085938 73.222656 C 115.363281 74.34375 115.0625 78.242188 116.488281 79.742188 C 117.613281 80.792969 117.460938 81.089844 115.4375 82.515625 L 113.191406 84.089844 L 113.191406 71.722656 C 113.191406 64.976562 113.414062 58.902344 113.640625 58.230469 C 114.238281 56.578125 117.238281 56.730469 123.160156 58.527344 Z M 119.710938 76.519531 C 120.011719 78.09375 118.738281 79.816406 117.761719 79.21875 C 117.3125 78.917969 116.9375 77.867188 116.9375 76.820312 C 116.9375 75.394531 117.3125 74.945312 118.210938 75.171875 C 118.960938 75.320312 119.636719 75.917969 119.710938 76.519531 Z M 128.179688 77.945312 C 128.179688 78.394531 127.433594 79.21875 126.53125 79.890625 C 124.734375 81.089844 123.910156 80.417969 124.734375 78.394531 C 125.183594 77.195312 128.179688 76.820312 128.179688 77.945312 Z M 122.484375 82.964844 C 124.132812 84.539062 123.984375 85.738281 121.808594 88.960938 C 119.113281 92.859375 118.4375 95.933594 117.6875 106.429688 C 117.3125 111.527344 116.789062 115.875 116.5625 116.171875 C 116.261719 116.398438 116.1875 109.953125 116.339844 101.78125 C 116.488281 89.710938 116.414062 87.011719 115.589844 87.164062 C 114.765625 87.3125 114.613281 90.3125 114.6875 101.78125 C 114.6875 111.375 114.464844 116.246094 113.9375 116.246094 C 113.488281 116.246094 113.191406 111 113.191406 100.957031 C 113.191406 86.640625 113.265625 85.589844 114.613281 85.140625 C 115.363281 84.914062 116.5625 84.089844 117.3125 83.265625 C 118.960938 81.464844 120.910156 81.316406 122.484375 82.964844 Z M 130.503906 85.515625 C 131.253906 85.964844 131.929688 86.789062 131.929688 87.464844 C 131.929688 89.1875 129.832031 89.5625 127.65625 88.136719 C 125.78125 86.863281 125.707031 86.789062 127.058594 85.8125 C 128.78125 84.539062 128.632812 84.539062 130.503906 85.515625 Z M 111.691406 113.25 C 111.691406 115.722656 111.464844 116.246094 110.265625 116.246094 C 108.09375 116.246094 106.441406 115.421875 106.441406 114.449219 C 106.441406 112.800781 108.765625 110.25 110.265625 110.25 C 111.464844 110.25 111.691406 110.777344 111.691406 113.25 Z M 123.683594 118.496094 C 123.683594 121.046875 121.734375 121.644531 113.265625 121.644531 C 106.070312 121.644531 104.867188 121.421875 103.445312 120.144531 C 102.546875 119.320312 101.945312 118.347656 102.171875 117.972656 C 102.394531 117.671875 107.34375 117.371094 113.113281 117.296875 C 122.632812 117.222656 123.683594 117.371094 123.683594 118.496094 Z M 111.765625 124.042969 C 112.738281 123.96875 115.738281 123.820312 118.4375 123.667969 C 122.859375 123.371094 123.308594 123.519531 123.535156 124.945312 C 123.832031 127.265625 120.835938 128.242188 112.964844 128.242188 C 106.441406 128.242188 105.09375 127.941406 102.019531 125.542969 C 101.871094 125.394531 102.09375 124.792969 102.546875 124.269531 C 103.21875 123.519531 104.34375 123.371094 106.742188 123.742188 C 108.542969 123.96875 110.789062 124.195312 111.765625 124.042969 Z M 123.535156 131.464844 C 123.007812 134.761719 110.640625 136.1875 105.167969 133.714844 C 101.496094 132.066406 101.722656 132.214844 102.171875 131.089844 C 102.394531 130.339844 105.167969 130.117188 113.113281 130.117188 C 123.007812 130.117188 123.757812 130.191406 123.535156 131.464844 Z M 123.535156 131.464844 " fill-opacity="1" fill-rule="nonzero"/><path fill="#ffffff" d="M 107.566406 63.027344 C 107.269531 63.476562 107.269531 64.074219 107.492188 64.300781 C 107.71875 64.527344 107.566406 65.351562 107.117188 66.175781 C 106.519531 67.222656 105.695312 67.523438 104.042969 67.375 C 101.121094 67.074219 100.445312 68.648438 103.144531 69.324219 C 105.695312 69.996094 108.917969 67.824219 109.292969 65.273438 C 109.589844 63.328125 108.390625 61.675781 107.566406 63.027344 Z M 107.566406 63.027344 " fill-opacity="1" fill-rule="nonzero"/><path fill="#ffffff" d="M 97.597656 68.648438 C 96.625 70.820312 95.800781 70.972656 94.449219 69.398438 C 93.25 67.972656 92.199219 67.972656 92.199219 69.398438 C 92.199219 72.320312 98.421875 72.621094 99.320312 69.699219 C 100.070312 67.300781 98.648438 66.398438 97.597656 68.648438 Z M 97.597656 68.648438 " fill-opacity="1" fill-rule="nonzero"/><path fill="#ffffff" d="M 100.445312 102.304688 C 100.445312 104.03125 104.269531 106.578125 106.367188 106.351562 C 109.367188 105.976562 109.214844 104.253906 106.144531 104.253906 C 104.269531 104.253906 103.144531 103.804688 102.546875 102.753906 C 101.421875 101.03125 100.445312 100.804688 100.445312 102.304688 Z M 100.445312 102.304688 " fill-opacity="1" fill-rule="nonzero"/><path fill="#ffffff" d="M 116.9375 61.453125 C 117.539062 61.902344 118.585938 62.277344 119.261719 62.277344 C 121.359375 62.277344 127.65625 65.351562 130.804688 67.824219 C 135.003906 71.195312 136.351562 71.871094 134.554688 69.773438 C 131.929688 66.550781 130.128906 65.199219 126.308594 63.402344 C 122.410156 61.527344 114.839844 59.953125 116.9375 61.453125 Z M 116.9375 61.453125 " fill-opacity="1" fill-rule="nonzero"/><path fill="#ffffff" d="M 76.460938 59.203125 C 76.460938 60.179688 83.355469 66.023438 84.480469 66.023438 C 86.128906 66.023438 85.53125 64.976562 82.605469 62.726562 C 81.105469 61.453125 79.53125 60.027344 79.234375 59.503906 C 78.558594 58.378906 76.460938 58.152344 76.460938 59.203125 Z M 76.460938 59.203125 " fill-opacity="1" fill-rule="nonzero"/><path fill="#ffffff" d="M 145.199219 60.027344 C 144.671875 60.703125 143.171875 62.050781 141.898438 63.027344 C 140.550781 64 139.425781 65.050781 139.425781 65.425781 C 139.425781 66.773438 141.523438 65.875 144.371094 63.402344 C 145.945312 61.976562 147.519531 60.777344 147.894531 60.777344 C 148.195312 60.777344 148.421875 60.328125 148.421875 59.804688 C 148.421875 58.378906 146.246094 58.527344 145.199219 60.027344 Z M 145.199219 60.027344 " fill-opacity="1" fill-rule="nonzero"/><path fill="#ffffff" d="M 71.585938 68.949219 C 71.136719 69.699219 72.5625 70.671875 77.359375 72.921875 C 79.15625 73.746094 80.355469 73.894531 80.65625 73.445312 C 81.257812 72.472656 81.332031 72.621094 76.683594 70.222656 C 72.261719 68.046875 72.1875 67.972656 71.585938 68.949219 Z M 71.585938 68.949219 " fill-opacity="1" fill-rule="nonzero"/><path fill="#ffffff" d="M 147.894531 70.371094 C 145.722656 71.421875 143.921875 72.769531 143.921875 73.296875 C 143.921875 74.644531 144.371094 74.496094 149.09375 72.171875 C 152.769531 70.296875 154.042969 68.949219 152.394531 68.5 C 152.09375 68.421875 149.996094 69.25 147.894531 70.371094 Z M 147.894531 70.371094 " fill-opacity="1" fill-rule="nonzero"/><path fill="#ffffff" d="M 69.339844 79.59375 C 68.664062 80.640625 69.261719 81.167969 71.363281 81.464844 C 72.859375 81.691406 74.285156 81.917969 78.183594 82.742188 C 78.558594 82.816406 79.007812 82.515625 79.234375 81.992188 C 79.609375 81.015625 78.332031 80.566406 73.835938 79.816406 C 72.1875 79.59375 70.613281 79.21875 70.3125 79.066406 C 70.011719 78.917969 69.5625 79.144531 69.339844 79.59375 Z M 69.339844 79.59375 " fill-opacity="1" fill-rule="nonzero"/><path fill="#ffffff" d="M 152.917969 79.292969 C 151.867188 79.441406 150.519531 79.816406 149.921875 80.042969 C 149.320312 80.265625 148.496094 80.417969 148.121094 80.34375 C 147.144531 80.117188 145.421875 81.839844 145.796875 82.589844 C 146.023438 82.890625 146.996094 82.890625 147.972656 82.515625 C 148.945312 82.140625 149.921875 82.066406 150.144531 82.292969 C 150.371094 82.515625 151.042969 82.367188 151.570312 82.066406 C 152.09375 81.765625 153.144531 81.390625 153.816406 81.390625 C 154.566406 81.316406 155.390625 81.015625 155.691406 80.792969 C 156.515625 79.890625 154.867188 79.066406 152.917969 79.292969 Z M 152.917969 79.292969 " fill-opacity="1" fill-rule="nonzero"/><path fill="#ffffff" d="M 77.882812 89.636719 C 77.660156 89.789062 75.710938 90.011719 73.609375 90.085938 C 71.136719 90.160156 69.789062 90.535156 69.9375 91.0625 C 70.164062 91.8125 72.710938 91.960938 78.40625 91.660156 C 79.53125 91.585938 80.207031 91.136719 80.058594 90.613281 C 79.683594 89.636719 78.40625 89.039062 77.882812 89.636719 Z M 77.882812 89.636719 " fill-opacity="1" fill-rule="nonzero"/><path fill="#ffffff" d="M 145.046875 90.011719 C 144.222656 91.285156 144.746094 91.511719 150.144531 91.886719 C 154.269531 92.1875 155.167969 92.109375 155.167969 91.136719 C 155.167969 90.3125 154.269531 90.011719 151.496094 90.011719 C 149.46875 90.011719 147.296875 89.789062 146.695312 89.5625 C 146.097656 89.335938 145.347656 89.5625 145.046875 90.011719 Z M 145.046875 90.011719 " fill-opacity="1" fill-rule="nonzero"/><path fill="#ffffff" d="M 79.757812 98.484375 C 79.007812 98.933594 78.035156 99.382812 77.582031 99.457031 C 74.136719 100.132812 70.914062 102.832031 73.6875 102.753906 C 75.558594 102.679688 82.753906 99.980469 82.980469 99.230469 C 83.429688 98.03125 81.40625 97.582031 79.757812 98.484375 Z M 79.757812 98.484375 " fill-opacity="1" fill-rule="nonzero"/><path fill="#ffffff" d="M 142.125 98.03125 C 141.300781 98.855469 141.675781 99.605469 143.023438 99.980469 C 143.699219 100.28125 145.648438 100.957031 147.296875 101.554688 C 150.820312 102.90625 152.167969 103.054688 152.167969 102.003906 C 152.167969 101.179688 149.921875 99.832031 147.894531 99.53125 C 147.144531 99.457031 146.246094 99.15625 145.796875 98.933594 C 144.222656 98.03125 142.574219 97.65625 142.125 98.03125 Z M 142.125 98.03125 " fill-opacity="1" fill-rule="nonzero"/><path fill="#ffffff" d="M 84.328125 106.726562 C 83.054688 107.628906 81.183594 108.976562 80.207031 109.652344 C 79.007812 110.550781 78.632812 111.226562 79.15625 111.75 C 79.980469 112.574219 87.703125 107.476562 87.703125 105.976562 C 87.703125 104.628906 86.953125 104.777344 84.328125 106.726562 Z M 84.328125 106.726562 " fill-opacity="1" fill-rule="nonzero"/><path fill="#ffffff" d="M 137.175781 106.128906 C 137.175781 106.804688 137.777344 107.550781 138.527344 107.777344 C 139.199219 108.078125 139.949219 108.453125 140.175781 108.753906 C 141.226562 110.027344 145.273438 112.425781 145.722656 111.976562 C 146.621094 111.074219 146.171875 110.25 143.773438 109.050781 C 142.5 108.378906 140.773438 107.179688 139.949219 106.429688 C 138.078125 104.703125 137.175781 104.628906 137.175781 106.128906 Z M 137.175781 106.128906 " fill-opacity="1" fill-rule="nonzero"/><path fill="#ffffff" d="M 75.710938 160.472656 L 75.710938 169.46875 L 79.832031 169.46875 C 83.429688 169.46875 83.957031 169.320312 83.957031 167.96875 C 83.957031 166.769531 83.429688 166.472656 81.332031 166.472656 C 78.933594 166.472656 78.707031 166.320312 78.707031 164.222656 C 78.707031 162.199219 78.933594 161.972656 80.957031 161.972656 C 82.679688 161.972656 83.207031 161.671875 83.207031 160.472656 C 83.207031 159.273438 82.679688 158.976562 80.957031 158.976562 C 78.933594 158.976562 78.707031 158.75 78.707031 156.726562 C 78.707031 154.628906 78.933594 154.476562 81.332031 154.476562 C 83.429688 154.476562 83.957031 154.179688 83.957031 152.976562 C 83.957031 151.628906 83.429688 151.480469 79.832031 151.480469 L 75.710938 151.480469 Z M 75.710938 160.472656 " fill-opacity="1" fill-rule="nonzero"/><path fill="#ffffff" d="M 86.203125 152.976562 C 86.203125 153.804688 86.730469 154.476562 87.328125 154.476562 C 88.226562 154.476562 88.453125 155.828125 88.453125 161.972656 C 88.453125 169.46875 88.453125 169.46875 90.328125 169.46875 C 92.199219 169.46875 92.199219 169.46875 92.199219 161.972656 C 92.199219 156.050781 92.425781 154.476562 93.25 154.476562 C 94.148438 154.476562 95.199219 152.976562 95.199219 151.777344 C 95.199219 151.628906 93.175781 151.480469 90.703125 151.480469 C 86.730469 151.480469 86.203125 151.628906 86.203125 152.976562 Z M 86.203125 152.976562 " fill-opacity="1" fill-rule="nonzero"/><path fill="#ffffff" d="M 97.449219 160.472656 C 97.449219 168.945312 97.523438 169.46875 98.945312 169.46875 C 100.222656 169.46875 100.445312 168.945312 100.445312 165.722656 C 100.445312 162.347656 100.597656 161.972656 102.171875 161.972656 C 103.667969 161.972656 103.820312 162.273438 103.59375 165.722656 C 103.292969 169.320312 103.371094 169.46875 105.242188 169.46875 L 107.191406 169.46875 L 107.191406 151.480469 L 105.242188 151.480469 C 103.445312 151.480469 103.371094 151.628906 103.519531 155.003906 C 103.746094 158.226562 103.59375 158.601562 102.09375 158.824219 C 100.597656 159.050781 100.445312 158.75 100.445312 155.300781 C 100.445312 152.003906 100.222656 151.480469 98.945312 151.480469 C 97.523438 151.480469 97.449219 152.003906 97.449219 160.472656 Z M 97.449219 160.472656 " fill-opacity="1" fill-rule="nonzero"/><path fill="#ffffff" d="M 110.191406 160.472656 L 110.191406 169.46875 L 113.9375 169.46875 L 113.9375 151.480469 L 110.191406 151.480469 Z M 110.191406 160.472656 " fill-opacity="1" fill-rule="nonzero"/><path fill="#ffffff" d="M 118.210938 152.828125 C 117.238281 153.878906 116.9375 155.75 116.9375 160.625 C 116.9375 167.820312 117.910156 169.46875 122.035156 169.46875 C 125.558594 169.46875 126.683594 167.296875 126.683594 160.472656 C 126.683594 153.578125 125.558594 151.480469 121.886719 151.480469 C 120.460938 151.480469 118.886719 152.078125 118.210938 152.828125 Z M 123.535156 160.023438 C 123.757812 165.570312 122.785156 167.894531 120.984375 166.394531 C 120.3125 165.796875 119.9375 163.847656 119.9375 160.472656 C 119.9375 155.152344 120.3125 154.328125 122.183594 154.628906 C 123.007812 154.851562 123.382812 156.050781 123.535156 160.023438 Z M 123.535156 160.023438 " fill-opacity="1" fill-rule="nonzero"/><path fill="#ffffff" d="M 129.679688 160.472656 C 129.679688 169.394531 129.679688 169.46875 131.480469 169.46875 C 133.128906 169.46875 133.203125 169.246094 132.828125 165.722656 L 132.453125 161.972656 L 134.851562 161.972656 C 136.726562 161.972656 137.175781 161.671875 137.175781 160.398438 C 137.175781 159.199219 136.800781 158.898438 135.152344 159.125 C 133.277344 159.351562 133.054688 159.050781 132.828125 156.875 C 132.605469 154.550781 132.679688 154.476562 135.226562 154.476562 C 137.402344 154.476562 137.925781 154.179688 137.925781 152.976562 C 137.925781 151.628906 137.402344 151.480469 133.804688 151.480469 L 129.679688 151.480469 Z M 129.679688 160.472656 " fill-opacity="1" fill-rule="nonzero"/><path fill="#ffffff" d="M 140.175781 155.453125 C 140.175781 158.527344 140.550781 159.800781 141.675781 160.847656 C 142.796875 161.824219 143.171875 163.171875 143.171875 165.871094 C 143.171875 169.246094 143.324219 169.46875 145.121094 169.46875 C 147.070312 169.46875 147.144531 169.394531 146.621094 166.019531 C 146.246094 162.949219 146.398438 162.421875 148.046875 161.074219 C 149.621094 159.875 149.921875 158.976562 149.921875 155.527344 C 149.921875 151.703125 149.84375 151.480469 148.046875 151.480469 C 146.398438 151.480469 146.246094 151.703125 146.621094 153.726562 C 147.222656 156.578125 146.398438 159.726562 145.121094 159.726562 C 143.773438 159.726562 143.171875 158.074219 143.171875 154.402344 C 143.171875 152.003906 142.949219 151.480469 141.675781 151.480469 C 140.324219 151.480469 140.175781 152.003906 140.175781 155.453125 Z M 140.175781 155.453125 " fill-opacity="1" fill-rule="nonzero"/><path fill="#ffffff" d="M 47.597656 177.414062 C 48.273438 181.988281 49.699219 182.886719 50.597656 179.363281 L 51.121094 177.339844 L 51.871094 179.363281 C 52.695312 181.761719 53.671875 182.0625 54.195312 180.113281 C 55.320312 176.214844 55.394531 174.71875 54.722656 174.71875 C 54.347656 174.71875 53.894531 175.242188 53.894531 175.839844 C 53.820312 176.964844 53.597656 177.941406 53.222656 178.988281 C 53.148438 179.363281 52.847656 178.613281 52.546875 177.414062 C 51.949219 174.566406 50.222656 173.890625 50.222656 176.515625 C 50.222656 177.492188 49.921875 178.613281 49.472656 178.839844 C 49.023438 179.140625 48.722656 178.316406 48.722656 177.039062 C 48.722656 175.765625 48.347656 174.71875 47.898438 174.71875 C 47.449219 174.71875 47.300781 175.765625 47.597656 177.414062 Z M 47.597656 177.414062 " fill-opacity="1" fill-rule="nonzero"/><path fill="#ffffff" d="M 57.867188 178.089844 C 57.792969 179.964844 58.019531 181.464844 58.46875 181.464844 C 58.84375 181.464844 59.21875 180.789062 59.21875 179.964844 C 59.21875 178.988281 59.742188 178.464844 60.644531 178.464844 C 61.691406 178.464844 61.992188 178.839844 61.691406 179.964844 C 61.46875 180.789062 61.691406 181.464844 62.140625 181.464844 C 62.589844 181.464844 62.964844 180.039062 62.964844 178.089844 C 62.964844 176.214844 62.667969 174.71875 62.214844 174.71875 C 61.84375 174.71875 61.46875 175.390625 61.46875 176.214844 C 61.46875 177.039062 60.941406 177.714844 60.34375 177.714844 C 59.742188 177.714844 59.21875 177.039062 59.21875 176.214844 C 59.21875 173.144531 57.945312 174.867188 57.867188 178.089844 Z M 57.867188 178.089844 " fill-opacity="1" fill-rule="nonzero"/><path fill="#ffffff" d="M 66.714844 178.089844 C 66.714844 181.164062 66.863281 181.464844 68.589844 181.464844 C 69.636719 181.464844 70.460938 181.089844 70.460938 180.636719 C 70.460938 180.1875 69.9375 179.964844 69.339844 180.1875 C 67.765625 180.863281 67.238281 179.4375 68.738281 178.539062 C 70.011719 177.789062 70.011719 177.789062 68.8125 177.714844 C 68.0625 177.714844 67.464844 177.339844 67.464844 176.964844 C 67.464844 176.515625 68.136719 176.214844 68.964844 176.214844 C 69.789062 176.214844 70.460938 175.839844 70.460938 175.464844 C 70.460938 175.015625 69.636719 174.71875 68.589844 174.71875 C 66.863281 174.71875 66.714844 175.015625 66.714844 178.089844 Z M 66.714844 178.089844 " fill-opacity="1" fill-rule="nonzero"/><path fill="#ffffff" d="M 72.9375 178.089844 C 72.9375 179.964844 73.234375 181.464844 73.609375 181.464844 C 73.910156 181.464844 74.210938 180.9375 74.210938 180.339844 C 74.210938 179.738281 74.511719 179.214844 74.886719 179.214844 C 75.261719 179.214844 75.710938 179.738281 76.007812 180.339844 C 76.234375 180.9375 76.835938 181.464844 77.285156 181.464844 C 77.882812 181.464844 77.882812 181.164062 77.207031 180.339844 C 76.757812 179.738281 76.535156 178.613281 76.835938 177.640625 C 77.433594 175.917969 76.308594 174.71875 74.136719 174.71875 C 73.234375 174.71875 72.9375 175.542969 72.9375 178.089844 Z M 72.9375 178.089844 " fill-opacity="1" fill-rule="nonzero"/><path fill="#ffffff" d="M 80.507812 178.089844 C 80.507812 181.3125 80.65625 181.464844 82.679688 181.464844 C 83.878906 181.464844 84.628906 181.164062 84.328125 180.714844 C 84.105469 180.265625 83.355469 179.964844 82.753906 179.964844 C 81.257812 179.964844 81.40625 178.613281 83.054688 178.238281 C 84.253906 177.941406 84.253906 177.863281 83.054688 177.789062 C 81.183594 177.714844 81.40625 176.214844 83.28125 176.214844 C 84.105469 176.214844 84.554688 175.839844 84.328125 175.464844 C 84.105469 175.015625 83.128906 174.71875 82.230469 174.71875 C 80.730469 174.71875 80.507812 175.089844 80.507812 178.089844 Z M 80.507812 178.089844 " fill-opacity="1" fill-rule="nonzero"/><path fill="#ffffff" d="M 91.453125 176.214844 C 90.25 178.390625 91.152344 180.488281 93.851562 181.839844 C 96.699219 183.261719 97.148438 183.261719 96.023438 181.914062 C 95.425781 181.164062 95.347656 180.714844 95.949219 180.339844 C 97 179.738281 96.921875 176.742188 95.800781 175.617188 C 94.449219 174.265625 92.351562 174.566406 91.453125 176.214844 Z M 95.199219 177.941406 C 95.199219 180.113281 94.675781 180.714844 93.25 180.1875 C 92.199219 179.8125 91.824219 177.566406 92.726562 176.742188 C 93.773438 175.617188 95.199219 176.289062 95.199219 177.941406 Z M 95.199219 177.941406 " fill-opacity="1" fill-rule="nonzero"/><path fill="#ffffff" d="M 99.695312 177.265625 C 99.695312 180.1875 101.195312 181.761719 103.445312 181.089844 C 104.644531 180.714844 104.945312 179.964844 104.945312 177.640625 C 104.945312 173.890625 103.59375 173.816406 103.292969 177.492188 C 103.144531 179.066406 102.769531 180.339844 102.320312 180.339844 C 101.945312 180.339844 101.496094 179.066406 101.347656 177.492188 C 101.046875 174.042969 99.695312 173.816406 99.695312 177.265625 Z M 99.695312 177.265625 " fill-opacity="1" fill-rule="nonzero"/><path fill="#ffffff" d="M 108.617188 178.089844 C 107.566406 180.863281 107.566406 181.464844 108.390625 181.464844 C 108.992188 181.464844 109.441406 181.089844 109.441406 180.714844 C 109.441406 179.664062 111.539062 179.8125 111.914062 180.863281 C 112.066406 181.386719 112.441406 181.613281 112.738281 181.386719 C 113.488281 180.714844 111.464844 174.71875 110.566406 174.71875 C 110.117188 174.71875 109.292969 176.214844 108.617188 178.089844 Z M 108.617188 178.089844 " fill-opacity="1" fill-rule="nonzero"/><path fill="#ffffff" d="M 116.1875 178.089844 C 116.1875 181.164062 116.339844 181.464844 118.0625 181.464844 C 119.113281 181.464844 119.9375 181.089844 119.9375 180.714844 C 119.9375 180.265625 119.410156 179.964844 118.8125 179.964844 C 118.0625 179.964844 117.6875 179.140625 117.6875 177.339844 C 117.6875 175.917969 117.386719 174.71875 116.9375 174.71875 C 116.5625 174.71875 116.1875 176.214844 116.1875 178.089844 Z M 116.1875 178.089844 " fill-opacity="1" fill-rule="nonzero"/><path fill="#ffffff" d="M 122.933594 178.089844 C 122.933594 179.964844 123.308594 181.464844 123.683594 181.464844 C 124.132812 181.464844 124.433594 179.964844 124.433594 178.089844 C 124.433594 176.214844 124.132812 174.71875 123.683594 174.71875 C 123.308594 174.71875 122.933594 176.214844 122.933594 178.089844 Z M 122.933594 178.089844 " fill-opacity="1" fill-rule="nonzero"/><path fill="#ffffff" d="M 126.683594 175.464844 C 126.683594 175.839844 127.058594 176.214844 127.433594 176.214844 C 127.882812 176.214844 128.179688 177.414062 128.179688 178.839844 C 128.179688 180.265625 128.554688 181.464844 128.929688 181.464844 C 129.382812 181.464844 129.679688 180.265625 129.679688 178.839844 C 129.679688 177.414062 130.054688 176.214844 130.429688 176.214844 C 130.878906 176.214844 131.179688 175.839844 131.179688 175.464844 C 131.179688 175.015625 130.207031 174.71875 128.929688 174.71875 C 127.730469 174.71875 126.683594 175.015625 126.683594 175.464844 Z M 126.683594 175.464844 " fill-opacity="1" fill-rule="nonzero"/><path fill="#ffffff" d="M 133.429688 175.316406 C 133.429688 175.691406 133.878906 176.589844 134.476562 177.339844 C 135.003906 178.089844 135.304688 179.363281 135.078125 180.113281 C 134.929688 180.863281 135.152344 181.464844 135.601562 181.464844 C 136.050781 181.464844 136.425781 180.863281 136.425781 180.113281 C 136.425781 179.4375 136.953125 178.164062 137.550781 177.414062 C 138.824219 175.691406 138.976562 174.71875 138 174.71875 C 137.625 174.71875 137.027344 175.464844 136.726562 176.367188 L 136.203125 178.089844 L 135.453125 176.367188 C 134.703125 174.792969 133.429688 174.117188 133.429688 175.316406 Z M 133.429688 175.316406 " fill-opacity="1" fill-rule="nonzero"/><path fill="#ffffff" d="M 145.421875 178.089844 C 145.421875 179.964844 145.796875 181.464844 146.171875 181.464844 C 146.621094 181.464844 146.921875 181.011719 146.921875 180.488281 C 146.921875 179.964844 147.597656 179.140625 148.421875 178.613281 C 149.695312 177.863281 149.769531 177.414062 149.171875 176.214844 C 148.71875 175.390625 147.671875 174.71875 146.921875 174.71875 C 145.648438 174.71875 145.421875 175.242188 145.421875 178.089844 Z M 145.421875 178.089844 " fill-opacity="1" fill-rule="nonzero"/><path fill="#ffffff" d="M 152.542969 178.089844 C 152.542969 181.464844 153.667969 183.039062 153.742188 179.738281 L 153.742188 178.089844 L 154.941406 179.738281 C 156.367188 181.839844 157.789062 182.0625 156.667969 180.039062 C 156.292969 179.214844 156.140625 178.015625 156.367188 177.339844 C 156.890625 175.992188 155.617188 174.71875 153.667969 174.71875 C 152.84375 174.71875 152.542969 175.617188 152.542969 178.089844 Z M 152.542969 178.089844 " fill-opacity="1" fill-rule="nonzero"/><path fill="#ffffff" d="M 160.039062 178.089844 C 160.039062 180.339844 160.339844 181.464844 161.015625 181.464844 C 161.6875 181.464844 161.914062 180.488281 161.761719 178.316406 C 161.464844 174.042969 160.039062 173.890625 160.039062 178.089844 Z M 160.039062 178.089844 " fill-opacity="1" fill-rule="nonzero"/><path fill="#ffffff" d="M 164.988281 178.238281 C 165.136719 181.613281 165.136719 181.6875 165.585938 179.214844 L 166.035156 176.589844 L 167.085938 178.988281 C 168.585938 182.664062 170.160156 182.210938 170.160156 178.089844 C 170.160156 176.140625 169.785156 174.71875 169.335938 174.71875 C 168.808594 174.71875 168.734375 175.542969 169.035156 176.964844 C 169.335938 178.238281 169.183594 179.214844 168.808594 179.214844 C 168.433594 179.214844 167.683594 178.164062 167.160156 176.964844 C 165.8125 173.667969 164.910156 174.191406 164.988281 178.238281 Z M 164.988281 178.238281 " fill-opacity="1" fill-rule="nonzero"/><path fill="#ffffff" d="M 172.40625 175.464844 C 172.40625 175.839844 172.933594 176.214844 173.53125 176.214844 C 174.28125 176.214844 174.65625 177.039062 174.65625 178.839844 C 174.65625 180.265625 175.03125 181.464844 175.480469 181.464844 C 176.082031 181.464844 176.230469 180.5625 175.929688 178.839844 C 175.632812 176.890625 175.78125 176.214844 176.605469 176.214844 C 177.207031 176.214844 177.65625 175.839844 177.65625 175.464844 C 177.65625 175.015625 176.457031 174.71875 175.03125 174.71875 C 173.605469 174.71875 172.40625 175.015625 172.40625 175.464844 Z M 172.40625 175.464844 " fill-opacity="1" fill-rule="nonzero"/><path fill="#ffffff" d="M 180.128906 175.917969 C 179.828125 176.742188 180.277344 177.640625 181.328125 178.390625 C 183.050781 179.664062 182.753906 180.9375 180.953125 180.1875 C 180.355469 179.964844 179.902344 180.1875 179.902344 180.636719 C 179.902344 181.839844 182.527344 181.6875 183.652344 180.414062 C 184.328125 179.515625 184.175781 179.140625 182.976562 178.316406 C 180.953125 177.117188 180.953125 176.214844 182.976562 176.214844 C 183.800781 176.214844 184.25 175.839844 184.027344 175.464844 C 183.277344 174.265625 180.652344 174.566406 180.128906 175.917969 Z M 180.128906 175.917969 " fill-opacity="1" fill-rule="nonzero"/><path fill="#ffffff" d="M 65.214844 190.082031 C 65.214844 191.957031 65.589844 193.457031 65.964844 193.457031 C 66.414062 193.457031 66.714844 192.933594 66.714844 192.332031 C 66.714844 191.734375 67.238281 191.207031 67.839844 191.207031 C 68.4375 191.207031 68.964844 190.832031 68.964844 190.457031 C 68.964844 190.007812 68.4375 189.707031 67.839844 189.707031 C 67.238281 189.707031 66.714844 189.335938 66.714844 188.960938 C 66.714844 188.507812 67.238281 188.210938 67.839844 188.210938 C 68.4375 188.210938 68.964844 187.835938 68.964844 187.460938 C 68.964844 187.011719 68.136719 186.710938 67.089844 186.710938 C 65.363281 186.710938 65.214844 187.011719 65.214844 190.082031 Z M 65.214844 190.082031 " fill-opacity="1" fill-rule="nonzero"/><path fill="#ffffff" d="M 71.960938 190.082031 C 71.960938 191.957031 72.335938 193.457031 72.710938 193.457031 C 73.160156 193.457031 73.460938 191.957031 73.460938 190.082031 C 73.460938 188.210938 73.160156 186.710938 72.710938 186.710938 C 72.335938 186.710938 71.960938 188.210938 71.960938 190.082031 Z M 71.960938 190.082031 " fill-opacity="1" fill-rule="nonzero"/><path fill="#ffffff" d="M 76.460938 190.082031 C 76.460938 191.957031 76.835938 193.457031 77.207031 193.457031 C 77.660156 193.457031 77.957031 192.558594 77.957031 191.359375 L 78.035156 189.335938 L 79.15625 191.359375 C 80.808594 194.429688 82.304688 194.054688 82.304688 190.609375 C 82.304688 186.785156 81.40625 185.734375 80.957031 188.960938 L 80.507812 191.582031 L 79.234375 189.109375 C 77.433594 185.8125 76.460938 186.109375 76.460938 190.082031 Z M 76.460938 190.082031 " fill-opacity="1" fill-rule="nonzero"/><path fill="#ffffff" d="M 85.453125 190.082031 C 85.453125 193.683594 86.277344 194.28125 89.277344 192.707031 C 91.078125 191.734375 91.152344 189.558594 89.351562 187.984375 C 86.730469 185.660156 85.453125 186.335938 85.453125 190.082031 Z M 89.050781 190.234375 C 89.203125 191.058594 88.753906 191.957031 88.152344 192.183594 C 87.253906 192.558594 86.953125 192.109375 86.953125 190.382812 C 86.953125 187.761719 88.675781 187.683594 89.050781 190.234375 Z M 89.050781 190.234375 " fill-opacity="1" fill-rule="nonzero"/><path fill="#ffffff" d="M 96.699219 187.386719 C 96.699219 187.761719 97.148438 188.210938 97.671875 188.433594 C 98.347656 188.660156 98.574219 189.632812 98.347656 191.132812 C 98.121094 192.78125 98.347656 193.457031 99.097656 193.457031 C 99.847656 193.457031 100.070312 192.707031 99.847656 190.832031 C 99.621094 188.808594 99.773438 188.210938 100.746094 188.210938 C 101.421875 188.210938 101.945312 187.835938 101.945312 187.460938 C 101.945312 187.011719 100.746094 186.710938 99.320312 186.710938 C 97.898438 186.710938 96.699219 187.011719 96.699219 187.386719 Z M 96.699219 187.386719 " fill-opacity="1" fill-rule="nonzero"/><path fill="#ffffff" d="M 104.195312 190.082031 C 104.195312 191.957031 104.570312 193.457031 104.945312 193.457031 C 105.394531 193.457031 105.695312 192.78125 105.695312 191.957031 C 105.695312 191.132812 106.21875 190.457031 106.816406 190.457031 C 107.417969 190.457031 107.941406 191.132812 107.941406 191.957031 C 107.941406 192.78125 108.316406 193.457031 108.691406 193.457031 C 109.140625 193.457031 109.441406 191.957031 109.441406 190.082031 C 109.441406 188.210938 109.140625 186.710938 108.691406 186.710938 C 108.316406 186.710938 107.941406 187.386719 107.941406 188.210938 C 107.941406 189.035156 107.417969 189.707031 106.816406 189.707031 C 106.21875 189.707031 105.695312 189.035156 105.695312 188.210938 C 105.695312 187.386719 105.394531 186.710938 104.945312 186.710938 C 104.570312 186.710938 104.195312 188.210938 104.195312 190.082031 Z M 104.195312 190.082031 " fill-opacity="1" fill-rule="nonzero"/><path fill="#ffffff" d="M 113.039062 190.082031 C 112.816406 193.382812 112.816406 193.457031 115.0625 193.382812 L 117.3125 193.382812 L 115.4375 192.558594 C 113.863281 191.882812 113.789062 191.65625 114.914062 191.433594 C 116.488281 191.058594 116.636719 189.707031 115.0625 189.707031 C 114.464844 189.707031 113.9375 189.335938 113.9375 188.960938 C 113.9375 188.507812 114.613281 188.210938 115.511719 188.210938 C 116.339844 188.210938 116.789062 187.835938 116.5625 187.460938 C 116.339844 187.011719 115.511719 186.710938 114.6875 186.710938 C 113.640625 186.710938 113.265625 187.386719 113.039062 190.082031 Z M 113.039062 190.082031 " fill-opacity="1" fill-rule="nonzero"/><path fill="#ffffff" d="M 119.1875 190.082031 C 119.1875 191.957031 119.5625 193.457031 119.9375 193.457031 C 120.386719 193.457031 120.6875 191.957031 120.6875 190.082031 C 120.6875 188.210938 120.386719 186.710938 119.9375 186.710938 C 119.5625 186.710938 119.1875 188.210938 119.1875 190.082031 Z M 119.1875 190.082031 " fill-opacity="1" fill-rule="nonzero"/><path fill="#ffffff" d="M 124.285156 190.082031 C 124.132812 192.40625 124.359375 193.457031 124.957031 193.457031 C 125.484375 193.457031 125.707031 192.933594 125.484375 192.332031 C 125.183594 191.734375 125.332031 191.207031 125.78125 191.207031 C 126.15625 191.207031 126.683594 191.734375 126.980469 192.332031 C 127.207031 192.933594 127.808594 193.457031 128.257812 193.457031 C 128.855469 193.457031 128.855469 193.15625 128.332031 192.480469 C 127.882812 191.957031 127.730469 190.757812 127.957031 189.785156 C 128.257812 188.734375 128.03125 187.835938 127.355469 187.386719 C 125.332031 186.109375 124.582031 186.710938 124.285156 190.082031 Z M 124.285156 190.082031 " fill-opacity="1" fill-rule="nonzero"/><path fill="#ffffff" d="M 135.601562 186.859375 C 135.601562 187.011719 135.527344 188.507812 135.453125 190.308594 C 135.378906 192.40625 135.601562 193.457031 136.277344 193.457031 C 136.726562 193.457031 137.175781 192.78125 137.175781 191.957031 C 137.175781 191.132812 137.703125 190.457031 138.300781 190.457031 C 138.902344 190.457031 139.425781 191.132812 139.425781 191.957031 C 139.425781 192.78125 139.800781 193.457031 140.175781 193.457031 C 140.625 193.457031 140.925781 191.957031 140.925781 190.082031 C 140.925781 188.210938 140.625 186.710938 140.175781 186.710938 C 139.800781 186.710938 139.425781 187.386719 139.425781 188.210938 C 139.425781 189.035156 138.902344 189.707031 138.300781 189.707031 C 137.703125 189.707031 137.175781 189.035156 137.175781 188.210938 C 137.175781 187.386719 136.875 186.710938 136.425781 186.710938 C 136.050781 186.710938 135.675781 186.785156 135.601562 186.859375 Z M 135.601562 186.859375 " fill-opacity="1" fill-rule="nonzero"/><path fill="#ffffff" d="M 144.597656 187.910156 C 144.148438 188.433594 143.921875 189.785156 144.074219 190.984375 C 144.222656 192.632812 144.746094 193.15625 146.320312 193.308594 C 147.972656 193.53125 148.570312 193.15625 149.320312 191.65625 C 149.996094 190.082031 149.921875 189.484375 148.945312 188.359375 C 147.445312 186.710938 145.722656 186.558594 144.597656 187.910156 Z M 148.046875 190.457031 C 148.046875 193.15625 145.871094 192.933594 145.574219 190.234375 C 145.347656 188.507812 145.574219 188.132812 146.695312 188.359375 C 147.597656 188.507812 148.046875 189.257812 148.046875 190.457031 Z M 148.046875 190.457031 " fill-opacity="1" fill-rule="nonzero"/><path fill="#ffffff" d="M 152.769531 190.082031 C 152.617188 191.957031 152.769531 193.457031 153.066406 193.457031 C 153.441406 193.457031 153.667969 192.332031 153.742188 190.984375 L 153.816406 188.585938 L 154.566406 190.984375 C 155.542969 193.980469 156.140625 194.054688 157.191406 191.359375 L 158.015625 189.335938 L 158.089844 191.359375 C 158.164062 192.558594 158.539062 193.457031 158.988281 193.457031 C 159.441406 193.457031 159.589844 192.933594 159.363281 192.257812 C 159.140625 191.582031 158.914062 190.082031 158.914062 188.882812 C 158.914062 186.035156 157.492188 186.109375 156.964844 188.960938 C 156.667969 190.160156 156.214844 191.207031 155.917969 191.207031 C 155.542969 191.207031 155.09375 190.160156 154.792969 188.960938 C 154.042969 185.660156 153.144531 186.1875 152.769531 190.082031 Z M 152.769531 190.082031 " fill-opacity="1" fill-rule="nonzero"/><path fill="#ffffff" d="M 162.664062 190.082031 C 162.664062 193.308594 162.738281 193.457031 164.761719 193.382812 C 165.960938 193.308594 166.261719 193.15625 165.511719 192.933594 C 163.863281 192.558594 163.710938 191.207031 165.285156 191.207031 C 165.886719 191.207031 166.410156 190.832031 166.410156 190.457031 C 166.410156 190.007812 165.886719 189.707031 165.285156 189.707031 C 164.6875 189.707031 164.164062 189.335938 164.164062 188.960938 C 164.164062 188.507812 164.6875 188.210938 165.285156 188.210938 C 165.886719 188.210938 166.410156 187.835938 166.410156 187.460938 C 166.410156 187.011719 165.585938 186.710938 164.539062 186.710938 C 162.8125 186.710938 162.664062 187.011719 162.664062 190.082031 Z M 162.664062 190.082031 " fill-opacity="1" fill-rule="nonzero"/></svg>